<svg width="22" height="22" viewBox="0 0 22 22" fill="none" xmlns="http://www.w3.org/2000/svg">
<circle cx="11" cy="11" r="11" fill="#E99902"/>
<path d="M12.0313 5.76172C11.3417 5.76172 10.7774 6.32597 10.7774 7.01561C10.7774 7.70525 11.3417 8.2695 12.0313 8.2695C12.721 8.2695 13.2852 7.70525 13.2852 7.01561C13.2852 6.32597 12.721 5.76172 12.0313 5.76172ZM10.1505 8.89645C9.10976 8.89645 8.26965 9.73655 8.26965 10.7773H9.52354C9.52354 10.4262 9.7994 10.1503 10.1505 10.1503C10.5016 10.1503 10.7774 10.4262 10.7774 10.7773C10.7774 11.1284 9.52354 12.8337 9.52354 13.912C9.52354 14.9904 10.3637 15.7928 11.4044 15.7928C12.4451 15.7928 13.2852 14.9527 13.2852 13.912H12.0313C12.0313 14.2631 11.7555 14.539 11.4044 14.539C11.0533 14.539 10.7774 14.2631 10.7774 13.912C10.7774 13.4606 12.0313 11.6049 12.0313 10.7773C12.0313 9.76163 11.1912 8.89645 10.1505 8.89645Z" fill="black"/>
</svg>
