<svg width="92" height="33" viewBox="0 0 92 33" fill="none" xmlns="http://www.w3.org/2000/svg">
<mask id="mask0_5_14093" style="mask-type:luminance" maskUnits="userSpaceOnUse" x="0" y="0" width="92" height="33">
<path d="M75.5008 32.5186C73.4106 32.2914 71.3779 31.625 69.2908 30.9797C66.8385 30.2224 64.2833 29.8195 61.7569 29.3909C52.3266 27.7787 42.7013 27.6611 33.2345 29.0425C31.0216 29.3576 28.7723 29.6484 26.5897 30.1134C24.3783 30.5829 22.2457 31.3493 20.0585 31.9097C19.1428 32.1507 18.2137 32.3378 17.2761 32.4702C13.1244 33.0276 9.53016 31.7719 6.32515 29.1803C4.43751 27.6603 2.91481 25.7362 1.86917 23.5498C0.823536 21.3633 0.28158 18.9702 0.283207 16.5466C0.283207 9.64284 4.81505 3.3328 11.3644 1.13807C15.4979 -0.247834 19.6253 0.868465 23.7845 1.42283C26.2443 1.74999 28.7097 2.02364 31.1806 2.24377C36.0972 2.68201 41.0268 2.90214 45.9697 2.90416C50.9125 2.90618 55.8427 2.68857 60.7602 2.25134C63.2311 2.03323 65.696 1.76059 68.1548 1.43343C70.5025 1.12141 72.8502 0.597342 75.2009 0.358027C82.2698 -0.367491 89.0691 5.3382 91.029 11.8512C91.4873 13.3742 91.7195 14.9562 91.7182 16.5466C91.7182 23.6413 86.5866 30.6798 79.5843 32.3096C78.245 32.6117 76.864 32.6824 75.5008 32.5186Z" fill="white"/>
</mask>
<g mask="url(#mask0_5_14093)">
<path d="M160.579 -45.851H-68.5319V85.4785H160.579V-45.851Z" fill="url(#paint0_linear_5_14093)"/>
</g>
<g style="mix-blend-mode:color-dodge">
<path d="M75.5008 32.5186C73.4106 32.2914 71.3779 31.625 69.2908 30.9797C66.8385 30.2224 64.2833 29.8195 61.7569 29.3909C52.3266 27.7787 42.7013 27.6611 33.2345 29.0425C31.0216 29.3576 28.7723 29.6484 26.5897 30.1134C24.3783 30.5829 22.2457 31.3493 20.0585 31.9097C19.1428 32.1507 18.2137 32.3378 17.2761 32.4702C13.1244 33.0276 9.53016 31.7719 6.32515 29.1803C4.43751 27.6603 2.91481 25.7362 1.86917 23.5498C0.823536 21.3633 0.28158 18.9702 0.283207 16.5466C0.283207 9.64284 4.81505 3.3328 11.3644 1.13807C15.4979 -0.247834 19.6253 0.868465 23.7845 1.42283C26.2443 1.74999 28.7097 2.02364 31.1806 2.24377C36.0972 2.68201 41.0268 2.90214 45.9697 2.90416C50.9125 2.90618 55.8427 2.68857 60.7602 2.25134C63.2311 2.03323 65.696 1.76059 68.1548 1.43343C70.5025 1.12141 72.8502 0.597342 75.2009 0.358027C82.2698 -0.367491 89.0691 5.3382 91.029 11.8512C91.4873 13.3742 91.7195 14.9562 91.7182 16.5466C91.7182 23.6413 86.5866 30.6798 79.5843 32.3096C78.245 32.6117 76.864 32.6824 75.5008 32.5186Z" fill="url(#paint1_linear_5_14093)"/>
<path d="M15.3283 32.8852C12.0521 32.8852 9.03037 31.7356 6.14192 29.4015C4.22194 27.8546 2.67345 25.8966 1.61049 23.6719C0.547531 21.4472 -0.00280715 19.0123 1.07671e-05 16.5467C1.07671e-05 9.54142 4.63636 3.09506 11.2751 0.870035C14.7103 -0.2811 18.1743 0.264174 21.5232 0.798847C22.2805 0.918504 23.05 1.03968 23.8149 1.14267C26.2671 1.46832 28.7526 1.74853 31.1973 1.9621C36.0972 2.39226 41.0592 2.61188 45.9621 2.61188H45.9924C50.8802 2.61188 55.8377 2.39226 60.7269 1.96058C63.1807 1.74247 65.6647 1.46832 68.1094 1.14267C69.106 1.0109 70.1208 0.839742 71.1023 0.668586C72.4322 0.439874 73.806 0.205103 75.1646 0.0627256C82.7379 -0.6946 89.4266 5.53516 91.3002 11.7589C91.7671 13.3118 92.0029 14.9251 92 16.5467C92 23.9276 86.576 30.9722 79.6495 32.5853C78.2787 32.8962 76.8649 32.9705 75.4691 32.805C73.5106 32.5929 71.6461 32.0143 69.674 31.4024L69.2014 31.2509C66.9613 30.5602 64.5954 30.1604 62.3067 29.7726L61.7009 29.6711C52.2992 28.0625 42.7029 27.9455 33.2648 29.3243L32.3439 29.4545C30.4597 29.7196 28.5103 29.9953 26.6397 30.3921C25.3477 30.6663 24.0557 31.051 22.8076 31.4221C21.9307 31.6841 21.0234 31.9537 20.1191 32.1794C19.1938 32.4265 18.2546 32.6182 17.3064 32.7535C16.6507 32.8411 15.9899 32.8852 15.3283 32.8852ZM15.7403 0.744319C14.2852 0.727188 12.8372 0.948741 11.4538 1.40016C5.04683 3.54945 0.564976 9.77467 0.564976 16.5467C0.562639 18.9287 1.0944 21.281 2.12114 23.4304C3.14788 25.5798 4.64347 27.4717 6.49787 28.9668C9.8301 31.6629 13.3411 32.7217 17.2322 32.1976C18.1586 32.0666 19.0765 31.8815 19.9813 31.6432C20.8749 31.4145 21.7777 31.1464 22.6501 30.8859C23.9088 30.5118 25.2114 30.1286 26.5246 29.8453C28.4149 29.4439 30.3733 29.1668 32.2682 28.9002L33.1875 28.7699C42.684 27.3835 52.3395 27.5011 61.7993 29.1183L62.4052 29.2198C64.712 29.6106 67.1006 30.0135 69.3726 30.7147L69.8452 30.8662C71.7915 31.4721 73.6318 32.0401 75.5357 32.2476C76.8677 32.4067 78.2172 32.336 79.5253 32.0385C86.2019 30.4724 91.435 23.6655 91.435 16.5467C91.4362 14.9846 91.2087 13.4307 90.7595 11.9346C88.9495 5.92746 82.4955 -0.0947983 75.2222 0.638293C73.8832 0.774612 72.5185 1.00938 71.1993 1.23507C70.2117 1.40016 69.1908 1.57283 68.1836 1.70309C65.7314 2.02874 63.2398 2.30895 60.7769 2.52252C55.871 2.95571 50.8969 3.17534 45.9924 3.17534H45.9621C41.0425 3.17534 36.0578 2.95268 31.1473 2.51495C28.6936 2.29684 26.202 2.02117 23.7407 1.69249C22.9712 1.58949 22.2033 1.46832 21.4354 1.34715C19.4921 1.04271 17.6078 0.744319 15.7403 0.744319Z" fill="#9ECFF7"/>
<path d="M17.8381 29.7471C14.83 29.7471 12.0551 28.8171 9.40297 26.9268C6.94166 25.1713 5.12862 22.7297 4.29859 20.0533C3.94421 18.9099 3.76397 17.7197 3.76392 16.5226C3.76392 10.8548 8.0216 5.63836 14.1166 3.83895C17.2716 2.91501 20.4508 3.35123 23.5256 3.78139C24.2253 3.87833 24.9266 3.97678 25.6294 4.05857C27.8817 4.32364 30.1613 4.54781 32.4075 4.72351C36.9015 5.07491 41.4621 5.25515 45.9636 5.25666H45.9924C50.4864 5.25666 55.0303 5.07794 59.5228 4.73259C61.7751 4.55689 64.0562 4.33576 66.3009 4.07221C67.2097 3.96467 68.1472 3.8238 69.0484 3.68748C70.2693 3.50421 71.531 3.31337 72.779 3.20128C79.7192 2.58027 85.8732 7.62558 87.5954 12.6603C88.0212 13.9035 88.2382 15.2086 88.2376 16.5226C88.2376 22.4949 83.2559 28.1946 76.8974 29.4987C75.6329 29.7521 74.3373 29.8124 73.0547 29.6774C71.2568 29.5047 69.5452 29.0367 67.7337 28.5414L67.299 28.4233C65.2436 27.8644 63.0701 27.5402 60.9693 27.2282L60.4164 27.1449C51.7681 25.8438 42.9811 25.7495 34.3069 26.8647L33.4617 26.9692C31.7305 27.1843 29.9416 27.4069 28.224 27.7265C27.0381 27.9492 25.8521 28.2597 24.7055 28.5611C23.8997 28.7716 23.0666 28.9897 22.2366 29.1776C21.3839 29.3745 20.5214 29.5262 19.6526 29.632C19.0505 29.7058 18.4446 29.7443 17.8381 29.7471ZM18.2243 3.74201C16.8925 3.7285 15.5659 3.90913 14.2862 4.2782C8.39421 6.01096 4.2895 11.0487 4.2895 16.5226C4.2895 17.6786 4.46362 18.828 4.806 19.9321C5.60725 22.5176 7.35819 24.8759 9.73619 26.5708C12.7958 28.7519 16.0205 29.6001 19.592 29.1836C20.4412 29.0772 21.284 28.9255 22.117 28.7292C22.9379 28.5444 23.7649 28.3278 24.5661 28.1234C25.7233 27.8204 26.9184 27.5069 28.1241 27.2812C29.8599 26.9556 31.6593 26.7329 33.3981 26.5163L34.2417 26.4118C42.9674 25.291 51.8064 25.3864 60.5058 26.695L61.0587 26.7784C63.1792 27.0934 65.3663 27.4206 67.455 27.9901L67.8897 28.1097C69.677 28.5974 71.3734 29.0594 73.1138 29.226C74.3366 29.3549 75.5718 29.2982 76.7777 29.0579C82.9121 27.7992 87.7165 22.295 87.7165 16.5272C87.7165 15.2581 87.5072 13.9976 87.097 12.7966C85.4309 7.93457 79.5086 3.06345 72.8305 3.65719C71.6006 3.76625 70.348 3.96012 69.1363 4.13885C68.2275 4.27668 67.293 4.41755 66.369 4.52509C64.1182 4.78561 61.8281 5.00826 59.5743 5.18699C55.0697 5.53687 50.5015 5.7156 46 5.7156H45.9712C41.4545 5.7156 36.8833 5.53385 32.3696 5.18093C30.1158 5.00372 27.8257 4.77955 25.5673 4.51448C24.8615 4.43118 24.1557 4.33273 23.4468 4.23427C21.661 3.98436 19.9313 3.74201 18.2243 3.74201Z" fill="#9ECFF7"/>
<g style="mix-blend-mode:color-dodge">
<path d="M33.3708 19.1671C33.3708 19.6064 33.1512 20.0017 32.7119 20.3652C32.2635 20.7346 31.7172 20.9651 31.1397 21.0286C27.4258 21.4841 23.7326 22.1222 20.0601 22.9432V7.34225C23.7285 8.16219 27.4218 8.80086 31.1397 9.25829C31.7173 9.32036 32.2639 9.5505 32.7119 9.92019C33.1512 10.2837 33.3708 10.6775 33.3708 11.1183V19.1671ZM30.0265 18.7779V11.5075C27.7989 11.3329 25.5815 11.1173 23.3741 10.8608V19.4246C25.5805 19.1732 27.7974 18.9576 30.025 18.7779H30.0265Z" fill="#F7C1F6"/>
<path d="M51.9541 20.3606C48.5956 20.1586 45.2346 20.1081 41.871 20.2091C41.319 20.2437 40.7692 20.1135 40.2913 19.835C39.852 19.5639 39.6309 19.2291 39.6309 18.8247V9.99127C40.7507 10.0458 41.871 10.0842 42.9919 10.1064V18.184C45.9808 18.1497 48.9682 18.1845 51.9541 18.2885V20.3606Z" fill="#F7C1F6"/>
<path d="M70.4072 22.943C67.1072 22.2059 63.7851 21.6152 60.4408 21.1709C59.8612 21.1011 59.315 20.8625 58.8701 20.4847C58.4308 20.1091 58.2127 19.7062 58.2127 19.2564V11.0379C58.2127 10.5835 58.4323 10.1851 58.8701 9.81099C59.3147 9.43267 59.8611 9.19399 60.4408 9.12485C63.7801 8.67955 67.1022 8.08833 70.4072 7.3512V10.4441C67.4728 10.841 64.5217 11.1666 61.554 11.4211V18.8701C64.5197 19.1256 67.4708 19.4507 70.4072 19.8456V22.943Z" fill="#F7C1F6"/>
</g>
</g>
<defs>
<linearGradient id="paint0_linear_5_14093" x1="-68.5319" y1="19.8138" x2="160.579" y2="19.8138" gradientUnits="userSpaceOnUse">
<stop stop-color="#51078B"/>
<stop offset="1" stop-color="#0E318C"/>
</linearGradient>
<linearGradient id="paint1_linear_5_14093" x1="45.9999" y1="32.6004" x2="45.9999" y2="0.289868" gradientUnits="userSpaceOnUse">
<stop stop-color="#D807D8" stop-opacity="0.7"/>
<stop offset="0.01" stop-color="#D807D8" stop-opacity="0.65"/>
<stop offset="0.04" stop-color="#D807D8" stop-opacity="0.5"/>
<stop offset="0.08" stop-color="#D807D8" stop-opacity="0.37"/>
<stop offset="0.11" stop-color="#D807D8" stop-opacity="0.27"/>
<stop offset="0.16" stop-color="#D807D8" stop-opacity="0.19"/>
<stop offset="0.22" stop-color="#D807D8" stop-opacity="0.14"/>
<stop offset="0.3" stop-color="#D807D8" stop-opacity="0.11"/>
<stop offset="0.52" stop-color="#D807D8" stop-opacity="0.1"/>
<stop offset="0.72" stop-color="#D807D8" stop-opacity="0.11"/>
<stop offset="0.8" stop-color="#D807D8" stop-opacity="0.14"/>
<stop offset="0.85" stop-color="#D807D8" stop-opacity="0.19"/>
<stop offset="0.89" stop-color="#D807D8" stop-opacity="0.27"/>
<stop offset="0.93" stop-color="#D807D8" stop-opacity="0.37"/>
<stop offset="0.96" stop-color="#D807D8" stop-opacity="0.5"/>
<stop offset="0.99" stop-color="#D807D8" stop-opacity="0.65"/>
<stop offset="1" stop-color="#D807D8" stop-opacity="0.7"/>
</linearGradient>
</defs>
</svg>
