<?xml version="1.0" standalone="no"?>
<!DOCTYPE svg PUBLIC "-//W3C//DTD SVG 20010904//EN"
 "http://www.w3.org/TR/2001/REC-SVG-20010904/DTD/svg10.dtd">
<svg version="1.0" xmlns="http://www.w3.org/2000/svg"
 width="531.000000pt" height="531.000000pt" viewBox="0 0 531.000000 531.000000"
 preserveAspectRatio="xMidYMid meet">
<metadata>
Created by potrace 1.14, written by Peter Selinger 2001-2017
</metadata>
<g transform="translate(0.000000,531.000000) scale(0.100000,-0.100000)"
fill="#000000" stroke="none">
<path d="M2609 5206 c-2 -2 -47 -6 -99 -10 -259 -15 -552 -122 -753 -272 -245
-184 -396 -434 -471 -779 -14 -60 -27 -130 -30 -155 -9 -64 -17 -286 -20 -487
-2 -200 -7 -213 -82 -213 -49 0 -91 -29 -100 -70 -13 -52 -11 -198 2 -275 25
-140 83 -314 179 -540 l51 -120 36 0 c20 0 39 -3 43 -7 4 -3 24 -94 46 -202
44 -225 65 -294 114 -384 48 -86 147 -219 230 -307 17 -17 40 -43 52 -56 l23
-25 -30 -71 c-66 -156 -76 -273 -43 -468 4 -22 7 -54 7 -72 1 -17 4 -29 8 -27
3 2 9 -15 13 -38 9 -52 55 -146 101 -207 19 -24 31 -48 27 -54 -3 -5 -2 -7 4
-4 11 7 59 -43 55 -56 -1 -5 2 -6 7 -3 5 4 14 -2 20 -11 6 -10 11 -14 11 -9 0
5 7 3 15 -4 11 -9 12 -16 5 -25 -7 -8 -5 -12 5 -12 8 0 12 4 9 9 -3 4 0 8 5 8
6 0 11 -4 11 -9 0 -5 9 -11 21 -14 13 -4 18 -10 13 -18 -4 -7 -3 -10 3 -6 6 4
28 -2 49 -12 l39 -20 -25 -10 c-14 -5 -19 -10 -12 -10 7 -1 22 4 33 9 24 13
24 3 2 -24 l-18 -21 25 21 c23 19 60 22 60 5 0 -3 12 -8 27 -9 15 -1 29 -6 32
-10 3 -4 19 -9 35 -10 17 -1 33 -7 37 -13 4 -6 16 -8 28 -4 13 4 29 1 38 -7
12 -9 15 -9 9 0 -4 6 -2 12 3 12 6 0 11 -4 11 -8 0 -5 14 -7 30 -6 17 1 30 -3
30 -9 0 -8 3 -8 8 -2 8 11 94 16 87 5 -2 -3 5 -12 16 -18 18 -12 19 -11 11 5
-9 16 -4 18 46 20 36 2 59 -2 64 -10 5 -8 8 -7 8 6 0 18 8 21 34 11 9 -3 13
-11 9 -17 -3 -6 -1 -7 5 -3 6 4 9 13 6 20 -3 8 5 15 23 19 15 3 37 9 47 13 15
6 18 4 12 -7 -6 -11 -4 -10 6 1 20 23 65 43 82 37 9 -4 15 -1 13 5 -1 7 3 13
8 13 15 2 73 37 103 63 15 12 33 20 40 17 7 -3 11 -1 8 3 -7 12 33 44 46 36 7
-4 8 -3 4 4 -4 7 -2 12 4 12 6 0 9 3 7 8 -5 9 30 42 37 35 3 -4 6 -1 6 6 0 7
5 9 12 5 6 -4 8 -3 4 4 -3 6 4 22 16 36 13 13 31 36 42 50 10 14 22 23 27 21
4 -3 11 0 15 6 4 8 3 9 -4 5 -15 -9 -15 -4 1 28 8 14 18 22 22 18 5 -4 5 -1 0
6 -4 8 -3 24 3 35 55 110 78 333 49 462 -5 22 -10 47 -12 55 -10 47 -29 111
-47 153 l-21 47 90 89 c141 139 233 293 298 494 19 60 39 134 45 165 5 31 12
68 15 82 3 14 8 55 11 91 6 62 8 66 30 61 39 -7 69 22 118 117 45 87 120 294
131 363 3 18 7 44 10 58 5 27 10 60 21 133 3 27 8 99 9 160 3 154 -10 177 -98
177 -66 0 -76 17 -69 113 9 114 8 385 -1 490 -8 95 -48 322 -57 322 -1 0 -3 7
-5 15 -1 9 -21 62 -43 119 -145 369 -439 670 -761 780 -122 42 -198 55 -396
67 -55 3 -102 7 -106 10 -3 2 -8 2 -10 0z"/>
<path d="M3396 423 c-6 -14 -5 -15 5 -6 7 7 10 15 7 18 -3 3 -9 -2 -12 -12z"/>
<path d="M3290 289 c0 -5 5 -7 10 -4 6 3 10 8 10 11 0 2 -4 4 -10 4 -5 0 -10
-5 -10 -11z"/>
<path d="M3217 279 c7 -7 15 -10 18 -7 3 3 -2 9 -12 12 -14 6 -15 5 -6 -5z"/>
<path d="M3250 249 c0 -5 5 -7 10 -4 6 3 10 8 10 11 0 2 -4 4 -10 4 -5 0 -10
-5 -10 -11z"/>
<path d="M3168 243 c-22 -5 -24 -20 -3 -20 8 0 16 6 19 14 3 7 4 12 3 12 -1
-1 -10 -3 -19 -6z"/>
<path d="M2033 203 c0 -9 4 -10 14 -2 7 6 13 12 13 14 0 1 -6 2 -13 2 -8 0
-14 -6 -14 -14z"/>
<path d="M3099 218 c-1 -2 -3 -13 -4 -26 -2 -21 -1 -22 16 -6 24 21 25 31 2
13 -15 -12 -16 -12 -10 4 5 13 1 26 -4 15z"/>
<path d="M2116 197 c3 -10 9 -15 12 -12 3 3 0 11 -7 18 -10 9 -11 8 -5 -6z"/>
<path d="M2070 191 c0 -6 4 -13 10 -16 6 -3 7 1 4 9 -7 18 -14 21 -14 7z"/>
<path d="M3051 184 c0 -11 3 -14 6 -6 3 7 2 16 -1 19 -3 4 -6 -2 -5 -13z"/>
<path d="M2115 160 c-4 -6 -11 -7 -17 -4 -7 4 -8 2 -4 -5 6 -9 11 -9 22 0 14
11 18 19 10 19 -3 0 -8 -5 -11 -10z"/>
<path d="M3020 161 c0 -6 4 -13 10 -16 6 -3 7 1 4 9 -7 18 -14 21 -14 7z"/>
<path d="M2970 156 c0 -2 7 -7 16 -10 8 -3 12 -2 9 4 -6 10 -25 14 -25 6z"/>
<path d="M3053 143 c0 -8 5 -9 11 -4 6 5 19 7 28 6 10 -2 20 0 22 4 3 4 -10 7
-28 7 -20 0 -33 -5 -33 -13z"/>
<path d="M3130 150 c0 -5 5 -10 11 -10 5 0 7 5 4 10 -3 6 -8 10 -11 10 -2 0
-4 -4 -4 -10z"/>
<path d="M2227 137 c-3 -8 1 -14 8 -14 7 0 11 6 8 14 -3 7 -6 13 -8 13 -2 0
-5 -6 -8 -13z"/>
<path d="M2950 139 c0 -6 -5 -7 -12 -3 -6 4 -8 3 -5 -4 4 -5 16 -8 27 -5 24 6
25 9 5 17 -8 3 -15 1 -15 -5z"/>
<path d="M2120 130 c-9 -6 -10 -10 -3 -10 6 0 15 5 18 10 8 12 4 12 -15 0z"/>
<path d="M2266 115 c-9 -26 -7 -32 5 -12 6 10 9 21 6 23 -2 3 -7 -2 -11 -11z"/>
<path d="M2190 116 c0 -2 7 -7 16 -10 8 -3 12 -2 9 4 -6 10 -25 14 -25 6z"/>
<path d="M2855 109 c-4 -6 -5 -12 -2 -15 2 -3 7 2 10 11 7 17 1 20 -8 4z"/>
<path d="M2915 110 c-3 -5 -1 -10 4 -10 6 0 11 5 11 10 0 6 -2 10 -4 10 -3 0
-8 -4 -11 -10z"/>
<path d="M2114 86 c1 -8 5 -18 8 -22 4 -3 5 1 4 10 -1 8 -5 18 -8 22 -4 3 -5
-1 -4 -10z"/>
<path d="M2359 93 c-6 -36 -4 -50 7 -50 10 0 11 4 4 12 -6 7 -8 20 -4 29 3 9
3 16 0 16 -3 0 -7 -3 -7 -7z"/>
<path d="M2416 91 c-3 -5 2 -15 12 -22 15 -13 16 -12 4 3 -10 13 -10 17 0 21
9 4 9 6 1 6 -6 1 -14 -3 -17 -8z"/>
<path d="M2870 90 c0 -5 5 -10 11 -10 5 0 7 5 4 10 -3 6 -8 10 -11 10 -2 0 -4
-4 -4 -10z"/>
<path d="M2956 92 c-3 -5 1 -9 9 -9 8 0 12 4 9 9 -3 4 -7 8 -9 8 -2 0 -6 -4
-9 -8z"/>
<path d="M2216 77 c3 -10 9 -15 12 -12 3 3 0 11 -7 18 -10 9 -11 8 -5 -6z"/>
<path d="M2681 83 c-1 -6 -4 -20 -7 -30 -5 -17 -5 -17 6 0 6 10 9 23 6 30 -3
9 -5 9 -5 0z"/>
<path d="M2710 78 c0 -10 27 -10 34 0 2 4 -4 8 -15 8 -10 0 -19 -4 -19 -8z"/>
<path d="M2450 69 c0 -5 5 -7 10 -4 6 3 10 8 10 11 0 2 -4 4 -10 4 -5 0 -10
-5 -10 -11z"/>
<path d="M2500 70 c8 -5 22 -9 30 -9 10 0 8 3 -5 9 -27 12 -43 12 -25 0z"/>
<path d="M2592 71 c-11 -7 -11 -9 0 -14 9 -3 15 1 15 9 0 8 -1 14 -1 14 -1 0
-7 -4 -14 -9z"/>
<path d="M2836 68 c3 -5 10 -6 15 -3 13 9 11 12 -6 12 -8 0 -12 -4 -9 -9z"/>
<path d="M2393 55 c0 -8 4 -12 9 -9 5 3 6 10 3 15 -9 13 -12 11 -12 -6z"/>
<path d="M2787 57 c-3 -8 1 -14 8 -14 7 0 11 6 8 14 -3 7 -6 13 -8 13 -2 0 -5
-6 -8 -13z"/>
<path d="M2478 38 c2 -10 6 -18 7 -18 1 0 5 8 7 18 3 11 0 19 -7 19 -7 0 -10
-8 -7 -19z"/>
<path d="M2699 58 c-8 -28 -4 -34 22 -34 16 0 29 3 29 8 0 4 -10 7 -22 5 -14
-1 -22 3 -20 11 2 10 -6 19 -9 10z"/>
<path d="M2454 30 c0 -13 4 -16 10 -10 7 7 7 13 0 20 -6 6 -10 3 -10 -10z"/>
<path d="M2313 25 c0 -8 4 -12 9 -9 5 3 6 10 3 15 -9 13 -12 11 -12 -6z"/>
<path d="M2610 30 c0 -5 5 -10 10 -10 6 0 10 5 10 10 0 6 -4 10 -10 10 -5 0
-10 -4 -10 -10z"/>
<path d="M2396 17 c3 -10 9 -15 12 -12 3 3 0 11 -7 18 -10 9 -11 8 -5 -6z"/>
<path d="M2855 10 c-3 -5 -1 -10 4 -10 6 0 11 5 11 10 0 6 -2 10 -4 10 -3 0
-8 -4 -11 -10z"/>
</g>
</svg>
